<svg xmlns="http://www.w3.org/2000/svg" viewBox="0 0 880 560" fill="none">
  <rect width="880" height="560" rx="20" fill="#0c1222" stroke="#1e293b" stroke-width="2" />
  <rect x="32" y="32" width="816" height="48" rx="10" fill="#111827" stroke="#334155" />
  <rect x="52" y="48" width="120" height="16" rx="4" fill="#22d3ee" opacity="0.35" />
  <rect x="200" y="48" width="200" height="16" rx="4" fill="#334155" />
  <rect x="700" y="48" width="120" height="16" rx="4" fill="#22d3ee" opacity="0.9" />
  <rect x="32" y="100" width="260" height="200" rx="12" fill="#111827" stroke="#334155" />
  <path
    d="M60 248 L100 210 L140 228 L180 184 L220 196 L260 160 L270 248 Z"
    fill="url(#g1)"
    opacity="0.85"
  />
  <rect x="52" y="116" width="100" height="12" rx="3" fill="#334155" />
  <rect x="32" y="316" width="260" height="212" rx="12" fill="#111827" stroke="#334155" />
  <rect x="52" y="360" width="12" height="140" rx="3" fill="#22d3ee" opacity="0.55" />
  <rect x="80" y="400" width="12" height="100" rx="3" fill="#22d3ee" opacity="0.35" />
  <rect x="108" y="380" width="12" height="120" rx="3" fill="#22d3ee" opacity="0.75" />
  <rect x="136" y="420" width="12" height="80" rx="3" fill="#22d3ee" opacity="0.5" />
  <rect x="52" y="332" width="120" height="12" rx="3" fill="#334155" />
  <rect x="308" y="100" width="540" height="428" rx="12" fill="#111827" stroke="#334155" />
  <rect x="332" y="132" width="492" height="36" rx="8" fill="#0f172a" stroke="#1e293b" />
  <rect x="348" y="144" width="80" height="12" rx="3" fill="#22d3ee" opacity="0.4" />
  <rect x="720" y="144" width="88" height="12" rx="3" fill="#f59e0b" opacity="0.5" />
  <rect x="332" y="188" width="150" height="22" rx="6" fill="#1e293b" />
  <rect x="500" y="188" width="150" height="22" rx="6" fill="#1e293b" />
  <rect x="668" y="188" width="150" height="22" rx="6" fill="#1e293b" />
  <rect x="332" y="230" width="486" height="2" rx="1" fill="#334155" />
  <circle cx="360" cy="270" r="6" fill="#ef4444" />
  <rect x="380" y="260" width="200" height="20" rx="4" fill="#0f172a" />
  <rect x="620" y="264" width="80" height="12" rx="3" fill="#f59e0b" opacity="0.6" />
  <circle cx="360" cy="312" r="6" fill="#f59e0b" />
  <rect x="380" y="302" width="240" height="20" rx="4" fill="#0f172a" />
  <rect x="660" y="306" width="64" height="12" rx="3" fill="#22d3ee" opacity="0.5" />
  <circle cx="360" cy="354" r="6" fill="#22d3ee" />
  <rect x="380" y="344" width="180" height="20" rx="4" fill="#0f172a" />
  <rect x="600" y="348" width="48" height="12" rx="3" fill="#64748b" />
  <rect x="332" y="396" width="486" height="110" rx="10" fill="#0f172a" stroke="#1e293b" />
  <rect x="352" y="420" width="200" height="8" rx="3" fill="#334155" />
  <rect x="352" y="440" width="420" height="8" rx="3" fill="#334155" />
  <rect x="352" y="460" width="300" height="8" rx="3" fill="#334155" />
  <rect x="352" y="480" width="360" height="8" rx="3" fill="#334155" />
  <defs>
    <linearGradient id="g1" x1="60" y1="160" x2="270" y2="248" gradientUnits="userSpaceOnUse">
      <stop stop-color="#22d3ee" stop-opacity="0.5" />
      <stop offset="1" stop-color="#22d3ee" stop-opacity="0.05" />
    </linearGradient>
  </defs>
</svg>
